# xmcd CD database file
#
# Track frame offsets:
#	150
#	26357
#	49437
#	78172
#	101872
#	188905
#	202537
#	216857
#	230005
#	244932
#	268475
#	274665
#
# Disc length: 4745 seconds
#
# Revision: 0
# Processed by: cddbd v1.4PL0 Copyright (c) Steve Scherf et al.
# Submitted via: CDex 1.51
#
DISCID=ac12870c
DTITLE=Gershwin Piano Quartet - Gershwin Piano Quartet
DYEAR=1999
DGENRE=Jazz
TTITLE0=I Got Rhythm
TTITLE1=Love is Here to Stay
TTITLE2=The Man I Love
TTITLE3=A Foggy Day
TTITLE4=Rhapsody In Blue
TTITLE5=Somebody Loves Me
TTITLE6=By Strauss
TTITLE7=Oh, Lady Be Good
TTITLE8=I Got Rythm
TTITLE9=SommerTime
TTITLE10=Oh, Lady Be Good
TTITLE11=An American In Paris
EXTD=YEAR: 1999
EXTT0=
EXTT1=
EXTT2=
EXTT3=
EXTT4=
EXTT5=
EXTT6=
EXTT7=
EXTT8=
EXTT9=
EXTT10=
EXTT11=
PLAYORDER=
